STARTFONT 2.1
COMMENT Copyright (c) 2011,  Aaron Christianson  ninjaaron@gmail.com
COMMENT licenced under the OFL 1.1
COMMENT 1
FONT -aaron-bitocra-medium-r-normal--10-100-72-72-C-90-ISO8859-1
SIZE 10 72 72
FONTBOUNDINGBOX 7 11 0 -2
STARTPROPERTIES 25
FONTNAME_REGISTRY ""
FOUNDRY "aaron"
FAMILY_NAME "bitocra"
WEIGHT_NAME "medium"
SLANT "r"
SETWIDTH_NAME "normal"
ADD_STYLE_NAME ""
PIXEL_SIZE 10
POINT_SIZE 100
RESOLUTION_X 72
RESOLUTION_Y 72
SPACING "C"
AVERAGE_WIDTH 90
CHARSET_REGISTRY "ISO8859"
CHARSET_ENCODING "1"
COPYRIGHT "CC, Aaron Christianson"
FACE_NAME "bitocra"
WEIGHT 10
X_HEIGHT 8
QUAD_WIDTH 8
_ORIGINAL_FONT_NAME "bitocra"
_GBDFED_INFO "Edited with gbdfed 1.6."
DEFAULT_CHAR 63
FONT_DESCENT 2
FONT_ASCENT 8
ENDPROPERTIES
CHARS 190
STARTCHAR char32
ENCODING 32
SWIDTH 700 0
DWIDTH 7 0
BBX 7 11 0 -2
BITMAP
00
00
00
00
00
00
00
00
00
00
00
ENDCHAR
STARTCHAR char33
ENCODING 33
SWIDTH 700 0
DWIDTH 7 0
BBX 7 11 0 -2
BITMAP
00
00
00
40
40
40
40
00
40
00
00
ENDCHAR
STARTCHAR char34
ENCODING 34
SWIDTH 700 0
DWIDTH 7 0
BBX 7 11 0 -2
BITMAP
00
00
78
50
00
00
00
00
00
00
00
ENDCHAR
STARTCHAR char35
ENCODING 35
SWIDTH 700 0
DWIDTH 7 0
BBX 7 11 0 -2
BITMAP
00
00
00
28
7C
28
7C
28
00
00
00
ENDCHAR
STARTCHAR char36
ENCODING 36
SWIDTH 700 0
DWIDTH 7 0
BBX 7 11 0 -2
BITMAP
00
00
00
10
7C
50
7C
14
7C
10
00
ENDCHAR
STARTCHAR char37
ENCODING 37
SWIDTH 700 0
DWIDTH 7 0
BBX 7 11 0 -2
BITMAP
00
00
00
60
6C
18
30
6C
0C
00
00
ENDCHAR
STARTCHAR char38
ENCODING 38
SWIDTH 700 0
DWIDTH 7 0
BBX 7 11 0 -2
BITMAP
00
00
00
38
20
74
48
48
74
00
00
ENDCHAR
STARTCHAR char39
ENCODING 39
SWIDTH 700 0
DWIDTH 7 0
BBX 7 11 0 -2
BITMAP
00
00
30
20
00
00
00
00
00
00
00
ENDCHAR
STARTCHAR char40
ENCODING 40
SWIDTH 700 0
DWIDTH 7 0
BBX 7 11 0 -2
BITMAP
00
00
10
20
20
20
20
20
20
10
00
ENDCHAR
STARTCHAR char41
ENCODING 41
SWIDTH 700 0
DWIDTH 7 0
BBX 7 11 0 -2
BITMAP
00
00
20
10
10
10
10
10
10
20
00
ENDCHAR
STARTCHAR char42
ENCODING 42
SWIDTH 700 0
DWIDTH 7 0
BBX 7 11 0 -2
BITMAP
00
00
00
10
54
38
38
54
10
00
00
ENDCHAR
STARTCHAR char43
ENCODING 43
SWIDTH 700 0
DWIDTH 7 0
BBX 7 11 0 -2
BITMAP
00
00
00
00
10
10
7C
10
10
00
00
ENDCHAR
STARTCHAR char44
ENCODING 44
SWIDTH 700 0
DWIDTH 7 0
BBX 7 11 0 -2
BITMAP
00
00
00
00
00
00
00
30
10
10
00
ENDCHAR
STARTCHAR char45
ENCODING 45
SWIDTH 700 0
DWIDTH 7 0
BBX 7 11 0 -2
BITMAP
00
00
00
00
00
00
7C
00
00
00
00
ENDCHAR
STARTCHAR char46
ENCODING 46
SWIDTH 700 0
DWIDTH 7 0
BBX 7 11 0 -2
BITMAP
00
00
00
00
00
00
00
30
30
00
00
ENDCHAR
STARTCHAR char47
ENCODING 47
SWIDTH 700 0
DWIDTH 7 0
BBX 7 11 0 -2
BITMAP
00
08
08
18
10
30
20
60
40
40
00
ENDCHAR
STARTCHAR char48
ENCODING 48
SWIDTH 700 0
DWIDTH 7 0
BBX 7 11 0 -2
BITMAP
00
00
00
78
48
58
68
48
78
00
00
ENDCHAR
STARTCHAR char49
ENCODING 49
SWIDTH 700 0
DWIDTH 7 0
BBX 7 11 0 -2
BITMAP
00
00
00
60
20
20
28
28
78
00
00
ENDCHAR
STARTCHAR char50
ENCODING 50
SWIDTH 700 0
DWIDTH 7 0
BBX 7 11 0 -2
BITMAP
00
00
00
78
08
78
40
40
78
00
00
ENDCHAR
STARTCHAR char51
ENCODING 51
SWIDTH 700 0
DWIDTH 7 0
BBX 7 11 0 -2
BITMAP
00
00
00
78
08
38
08
08
78
00
00
ENDCHAR
STARTCHAR char52
ENCODING 52
SWIDTH 700 0
DWIDTH 7 0
BBX 7 11 0 -2
BITMAP
00
00
00
40
50
50
78
10
10
00
00
ENDCHAR
STARTCHAR char53
ENCODING 53
SWIDTH 700 0
DWIDTH 7 0
BBX 7 11 0 -2
BITMAP
00
00
00
78
40
78
08
08
78
00
00
ENDCHAR
STARTCHAR char54
ENCODING 54
SWIDTH 700 0
DWIDTH 7 0
BBX 7 11 0 -2
BITMAP
00
00
00
60
40
40
78
48
78
00
00
ENDCHAR
STARTCHAR char55
ENCODING 55
SWIDTH 700 0
DWIDTH 7 0
BBX 7 11 0 -2
BITMAP
00
00
00
78
08
18
30
20
20
00
00
ENDCHAR
STARTCHAR char56
ENCODING 56
SWIDTH 700 0
DWIDTH 7 0
BBX 7 11 0 -2
BITMAP
00
00
00
38
28
78
48
48
78
00
00
ENDCHAR
STARTCHAR char57
ENCODING 57
SWIDTH 700 0
DWIDTH 7 0
BBX 7 11 0 -2
BITMAP
00
00
00
78
48
78
08
08
18
00
00
ENDCHAR
STARTCHAR char58
ENCODING 58
SWIDTH 700 0
DWIDTH 7 0
BBX 7 11 0 -2
BITMAP
00
00
00
00
30
30
00
30
30
00
00
ENDCHAR
STARTCHAR char59
ENCODING 59
SWIDTH 700 0
DWIDTH 7 0
BBX 7 11 0 -2
BITMAP
00
00
00
00
30
30
00
30
10
10
00
ENDCHAR
STARTCHAR char60
ENCODING 60
SWIDTH 700 0
DWIDTH 7 0
BBX 7 11 0 -2
BITMAP
00
00
00
00
18
30
60
30
18
00
00
ENDCHAR
STARTCHAR char61
ENCODING 61
SWIDTH 700 0
DWIDTH 7 0
BBX 7 11 0 -2
BITMAP
00
00
00
00
00
78
00
78
00
00
00
ENDCHAR
STARTCHAR char62
ENCODING 62
SWIDTH 700 0
DWIDTH 7 0
BBX 7 11 0 -2
BITMAP
00
00
00
00
60
30
18
30
60
00
00
ENDCHAR
STARTCHAR char63
ENCODING 63
SWIDTH 700 0
DWIDTH 7 0
BBX 7 11 0 -2
BITMAP
00
00
00
78
48
08
38
20
00
20
00
ENDCHAR
STARTCHAR char64
ENCODING 64
SWIDTH 700 0
DWIDTH 7 0
BBX 7 11 0 -2
BITMAP
00
00
7C
44
04
04
74
54
7C
00
00
ENDCHAR
STARTCHAR char65
ENCODING 65
SWIDTH 700 0
DWIDTH 7 0
BBX 7 11 0 -2
BITMAP
00
00
00
38
48
48
48
78
48
00
00
ENDCHAR
STARTCHAR char66
ENCODING 66
SWIDTH 700 0
DWIDTH 7 0
BBX 7 11 0 -2
BITMAP
00
00
00
70
50
78
48
48
78
00
00
ENDCHAR
STARTCHAR char67 QUOTE THIS SHIT
ENCODING 67
SWIDTH 700 0
DWIDTH 7 0
BBX 7 11 0 -2
BITMAP
00
00
00
38
40
40
40
40
78
00
00
ENDCHAR
STARTCHAR char68
ENCODING 68
SWIDTH 700 0
DWIDTH 7 0
BBX 7 11 0 -2
BITMAP
00
00
00
78
24
24
24
24
78
00
00
ENDCHAR
STARTCHAR char69
ENCODING 69
SWIDTH 700 0
DWIDTH 7 0
BBX 7 11 0 -2
BITMAP
00
00
00
78
40
70
40
40
78
00
00
ENDCHAR
STARTCHAR char70
ENCODING 70
SWIDTH 700 0
DWIDTH 7 0
BBX 7 11 0 -2
BITMAP
00
00
00
78
40
70
40
40
40
00
00
ENDCHAR
STARTCHAR char71
ENCODING 71
SWIDTH 700 0
DWIDTH 7 0
BBX 7 11 0 -2
BITMAP
00
00
00
38
40
40
58
48
78
00
00
ENDCHAR
STARTCHAR char72
ENCODING 72
SWIDTH 700 0
DWIDTH 7 0
BBX 7 11 0 -2
BITMAP
00
00
00
48
48
48
78
48
48
00
00
ENDCHAR
STARTCHAR char73
ENCODING 73
SWIDTH 700 0
DWIDTH 7 0
BBX 7 11 0 -2
BITMAP
00
00
00
38
10
10
10
10
38
00
00
ENDCHAR
STARTCHAR char74
ENCODING 74
SWIDTH 700 0
DWIDTH 7 0
BBX 7 11 0 -2
BITMAP
00
00
00
70
10
10
10
90
F0
00
00
ENDCHAR
STARTCHAR char75
ENCODING 75
SWIDTH 700 0
DWIDTH 7 0
BBX 7 11 0 -2
BITMAP
00
00
00
48
58
70
70
58
48
00
00
ENDCHAR
STARTCHAR char76
ENCODING 76
SWIDTH 700 0
DWIDTH 7 0
BBX 7 11 0 -2
BITMAP
00
00
00
40
40
40
40
40
78
00
00
ENDCHAR
STARTCHAR char77
ENCODING 77
SWIDTH 700 0
DWIDTH 7 0
BBX 7 11 0 -2
BITMAP
00
00
00
44
6C
7C
54
44
44
00
00
ENDCHAR
STARTCHAR char78
ENCODING 78
SWIDTH 700 0
DWIDTH 7 0
BBX 7 11 0 -2
BITMAP
00
00
00
68
68
68
58
58
58
00
00
ENDCHAR
STARTCHAR char79
ENCODING 79
SWIDTH 700 0
DWIDTH 7 0
BBX 7 11 0 -2
BITMAP
00
00
00
78
48
48
48
48
78
00
00
ENDCHAR
STARTCHAR char80
ENCODING 80
SWIDTH 700 0
DWIDTH 7 0
BBX 7 11 0 -2
BITMAP
00
00
00
7C
24
24
3C
20
20
00
00
ENDCHAR
STARTCHAR char81
ENCODING 81
SWIDTH 700 0
DWIDTH 7 0
BBX 7 11 0 -2
BITMAP
00
00
00
38
48
48
48
48
70
18
00
ENDCHAR
STARTCHAR char82
ENCODING 82
SWIDTH 700 0
DWIDTH 7 0
BBX 7 11 0 -2
BITMAP
00
00
00
78
48
48
70
58
48
00
00
ENDCHAR
STARTCHAR char83
ENCODING 83
SWIDTH 700 0
DWIDTH 7 0
BBX 7 11 0 -2
BITMAP
00
00
00
38
48
40
78
08
78
00
00
ENDCHAR
STARTCHAR char84
ENCODING 84
SWIDTH 700 0
DWIDTH 7 0
BBX 7 11 0 -2
BITMAP
00
00
00
7C
54
10
10
10
10
00
00
ENDCHAR
STARTCHAR char85
ENCODING 85
SWIDTH 700 0
DWIDTH 7 0
BBX 7 11 0 -2
BITMAP
00
00
00
48
48
48
48
48
78
00
00
ENDCHAR
STARTCHAR char86
ENCODING 86
SWIDTH 700 0
DWIDTH 7 0
BBX 7 11 0 -2
BITMAP
00
00
00
48
48
48
58
70
60
00
00
ENDCHAR
STARTCHAR char87
ENCODING 87
SWIDTH 700 0
DWIDTH 7 0
BBX 7 11 0 -2
BITMAP
00
00
00
44
44
44
54
7C
6C
00
00
ENDCHAR
STARTCHAR char88
ENCODING 88
SWIDTH 700 0
DWIDTH 7 0
BBX 7 11 0 -2
BITMAP
00
00
00
48
78
30
30
78
48
00
00
ENDCHAR
STARTCHAR char89
ENCODING 89
SWIDTH 700 0
DWIDTH 7 0
BBX 7 11 0 -2
BITMAP
00
00
00
44
6C
38
10
10
10
00
00
ENDCHAR
STARTCHAR char90
ENCODING 90
SWIDTH 700 0
DWIDTH 7 0
BBX 7 11 0 -2
BITMAP
00
00
00
78
18
10
20
60
78
00
00
ENDCHAR
STARTCHAR char91
ENCODING 91
SWIDTH 700 0
DWIDTH 7 0
BBX 7 11 0 -2
BITMAP
00
00
7C
50
50
50
50
50
50
7C
00
ENDCHAR
STARTCHAR char92
ENCODING 92
SWIDTH 700 0
DWIDTH 7 0
BBX 7 11 0 -2
BITMAP
00
40
40
60
20
30
10
18
08
08
00
ENDCHAR
STARTCHAR char93
ENCODING 93
SWIDTH 700 0
DWIDTH 7 0
BBX 7 11 0 -2
BITMAP
00
00
7C
14
14
14
14
14
14
7C
00
ENDCHAR
STARTCHAR char94
ENCODING 94
SWIDTH 700 0
DWIDTH 7 0
BBX 7 11 0 -2
BITMAP
00
00
00
10
38
6C
00
00
00
00
00
ENDCHAR
STARTCHAR char95
ENCODING 95
SWIDTH 700 0
DWIDTH 7 0
BBX 7 11 0 -2
BITMAP
00
00
00
00
00
00
00
00
00
7C
00
ENDCHAR
STARTCHAR char96
ENCODING 96
SWIDTH 700 0
DWIDTH 7 0
BBX 7 11 0 -2
BITMAP
00
00
20
30
10
00
00
00
00
00
00
ENDCHAR
STARTCHAR char97
ENCODING 97
SWIDTH 700 0
DWIDTH 7 0
BBX 7 11 0 -2
BITMAP
00
00
00
00
38
08
78
48
78
00
00
ENDCHAR
STARTCHAR char98
ENCODING 98
SWIDTH 700 0
DWIDTH 7 0
BBX 7 11 0 -2
BITMAP
00
00
40
40
78
48
48
48
78
00
00
ENDCHAR
STARTCHAR char99
ENCODING 99
SWIDTH 700 0
DWIDTH 7 0
BBX 7 11 0 -2
BITMAP
00
00
00
00
38
40
40
40
78
00
00
ENDCHAR
STARTCHAR char100
ENCODING 100
SWIDTH 700 0
DWIDTH 7 0
BBX 7 11 0 -2
BITMAP
00
00
08
08
78
48
48
48
78
00
00
ENDCHAR
STARTCHAR char101
ENCODING 101
SWIDTH 700 0
DWIDTH 7 0
BBX 7 11 0 -2
BITMAP
00
00
00
00
78
48
78
40
78
00
00
ENDCHAR
STARTCHAR char102
ENCODING 102
SWIDTH 700 0
DWIDTH 7 0
BBX 7 11 0 -2
BITMAP
00
00
38
20
70
20
20
20
20
00
00
ENDCHAR
STARTCHAR char103
ENCODING 103
SWIDTH 700 0
DWIDTH 7 0
BBX 7 11 0 -2
BITMAP
00
00
00
00
78
48
48
78
08
78
00
ENDCHAR
STARTCHAR char104
ENCODING 104
SWIDTH 700 0
DWIDTH 7 0
BBX 7 11 0 -2
BITMAP
00
00
40
40
78
48
48
48
48
00
00
ENDCHAR
STARTCHAR char105
ENCODING 105
SWIDTH 700 0
DWIDTH 7 0
BBX 7 11 0 -2
BITMAP
00
00
10
00
30
10
10
10
38
00
00
ENDCHAR
STARTCHAR char106
ENCODING 106
SWIDTH 700 0
DWIDTH 7 0
BBX 7 11 0 -2
BITMAP
00
00
10
00
30
10
10
10
50
70
00
ENDCHAR
STARTCHAR char107
ENCODING 107
SWIDTH 700 0
DWIDTH 7 0
BBX 7 11 0 -2
BITMAP
00
00
40
40
48
58
70
48
48
00
00
ENDCHAR
STARTCHAR char108
ENCODING 108
SWIDTH 700 0
DWIDTH 7 0
BBX 7 11 0 -2
BITMAP
00
00
60
20
20
20
20
20
30
00
00
ENDCHAR
STARTCHAR char109
ENCODING 109
SWIDTH 700 0
DWIDTH 7 0
BBX 7 11 0 -2
BITMAP
00
00
00
00
7C
54
54
44
44
00
00
ENDCHAR
STARTCHAR char110
ENCODING 110
SWIDTH 700 0
DWIDTH 7 0
BBX 7 11 0 -2
BITMAP
00
00
00
00
78
48
48
48
48
00
00
ENDCHAR
STARTCHAR char111
ENCODING 111
SWIDTH 700 0
DWIDTH 7 0
BBX 7 11 0 -2
BITMAP
00
00
00
00
78
48
48
48
78
00
00
ENDCHAR
STARTCHAR char112
ENCODING 112
SWIDTH 700 0
DWIDTH 7 0
BBX 7 11 0 -2
BITMAP
00
00
00
00
78
48
48
78
40
40
00
ENDCHAR
STARTCHAR char113
ENCODING 113
SWIDTH 700 0
DWIDTH 7 0
BBX 7 11 0 -2
BITMAP
00
00
00
00
78
48
48
78
08
08
00
ENDCHAR
STARTCHAR char114
ENCODING 114
SWIDTH 700 0
DWIDTH 7 0
BBX 7 11 0 -2
BITMAP
00
00
00
00
78
48
40
40
40
00
00
ENDCHAR
STARTCHAR char115
ENCODING 115
SWIDTH 700 0
DWIDTH 7 0
BBX 7 11 0 -2
BITMAP
00
00
00
00
78
40
78
08
78
00
00
ENDCHAR
STARTCHAR char116
ENCODING 116
SWIDTH 700 0
DWIDTH 7 0
BBX 7 11 0 -2
BITMAP
00
00
20
20
70
20
20
28
38
00
00
ENDCHAR
STARTCHAR char117
ENCODING 117
SWIDTH 700 0
DWIDTH 7 0
BBX 7 11 0 -2
BITMAP
00
00
00
00
48
48
48
48
78
00
00
ENDCHAR
STARTCHAR char118
ENCODING 118
SWIDTH 700 0
DWIDTH 7 0
BBX 7 11 0 -2
BITMAP
00
00
00
00
48
48
48
78
30
00
00
ENDCHAR
STARTCHAR char119
ENCODING 119
SWIDTH 700 0
DWIDTH 7 0
BBX 7 11 0 -2
BITMAP
00
00
00
00
44
44
54
54
7C
00
00
ENDCHAR
STARTCHAR char120
ENCODING 120
SWIDTH 700 0
DWIDTH 7 0
BBX 7 11 0 -2
BITMAP
00
00
00
00
48
78
30
78
48
00
00
ENDCHAR
STARTCHAR char121
ENCODING 121
SWIDTH 700 0
DWIDTH 7 0
BBX 7 11 0 -2
BITMAP
00
00
00
00
48
48
48
78
08
78
00
ENDCHAR
STARTCHAR char122
ENCODING 122
SWIDTH 700 0
DWIDTH 7 0
BBX 7 11 0 -2
BITMAP
00
00
00
00
78
18
30
60
78
00
00
ENDCHAR
STARTCHAR char123
ENCODING 123
SWIDTH 700 0
DWIDTH 7 0
BBX 7 11 0 -2
BITMAP
00
00
18
10
10
30
10
10
10
18
00
ENDCHAR
STARTCHAR char124
ENCODING 124
SWIDTH 700 0
DWIDTH 7 0
BBX 7 11 0 -2
BITMAP
00
00
00
10
10
10
10
10
10
10
00
ENDCHAR
STARTCHAR char125
ENCODING 125
SWIDTH 700 0
DWIDTH 7 0
BBX 7 11 0 -2
BITMAP
00
00
60
20
20
30
20
20
20
60
00
ENDCHAR
STARTCHAR char126
ENCODING 126
SWIDTH 700 0
DWIDTH 7 0
BBX 7 11 0 -2
BITMAP
00
00
00
00
00
74
5C
00
00
00
00
ENDCHAR
STARTCHAR char128
ENCODING 128
SWIDTH 700 0
DWIDTH 7 0
BBX 7 11 0 -2
BITMAP
00
00
00
00
00
00
00
00
00
00
00
ENDCHAR
STARTCHAR char33
ENCODING 161
SWIDTH 700 0
DWIDTH 7 0
BBX 7 11 0 -2
BITMAP
00
00
00
08
00
08
08
08
08
08
00
ENDCHAR
STARTCHAR char99
ENCODING 162
SWIDTH 700 0
DWIDTH 7 0
BBX 7 11 0 -2
BITMAP
00
00
00
08
38
54
50
64
38
20
00
ENDCHAR
STARTCHAR char163
ENCODING 163
SWIDTH 700 0
DWIDTH 7 0
BBX 7 11 0 -2
BITMAP
00
00
00
1C
20
20
78
20
7C
00
00
ENDCHAR
STARTCHAR char164
ENCODING 164
SWIDTH 700 0
DWIDTH 7 0
BBX 7 11 0 -2
BITMAP
00
00
00
84
78
48
48
78
84
00
00
ENDCHAR
STARTCHAR char165
ENCODING 165
SWIDTH 700 0
DWIDTH 7 0
BBX 7 11 0 -2
BITMAP
00
00
00
44
28
10
38
10
38
10
00
ENDCHAR
STARTCHAR char166
ENCODING 166
SWIDTH 700 0
DWIDTH 7 0
BBX 7 11 0 -2
BITMAP
00
00
00
10
10
10
10
10
10
10
00
ENDCHAR
STARTCHAR char167
ENCODING 167
SWIDTH 700 0
DWIDTH 7 0
BBX 7 11 0 -2
BITMAP
00
00
00
00
38
20
50
28
10
70
00
ENDCHAR
STARTCHAR char168
ENCODING 168
SWIDTH 700 0
DWIDTH 7 0
BBX 7 11 0 -2
BITMAP
00
00
00
24
00
00
00
00
00
00
00
ENDCHAR
STARTCHAR char169
ENCODING 169
SWIDTH 700 0
DWIDTH 7 0
BBX 7 11 0 -2
BITMAP
00
00
38
44
9A
A2
9A
44
38
00
00
ENDCHAR
STARTCHAR char170
ENCODING 170
SWIDTH 700 0
DWIDTH 7 0
BBX 7 11 0 -2
BITMAP
00
00
00
30
10
70
50
68
00
00
00
ENDCHAR
STARTCHAR char187
ENCODING 171
SWIDTH 700 0
DWIDTH 7 0
BBX 7 11 0 -2
BITMAP
00
00
00
00
00
24
48
24
00
00
00
ENDCHAR
STARTCHAR char172
ENCODING 172
SWIDTH 700 0
DWIDTH 7 0
BBX 7 11 0 -2
BITMAP
00
00
00
00
00
00
7C
04
04
00
00
ENDCHAR
STARTCHAR char169
ENCODING 174
SWIDTH 700 0
DWIDTH 7 0
BBX 7 11 0 -2
BITMAP
00
00
38
7C
AA
B2
AA
44
38
00
00
ENDCHAR
STARTCHAR char175
ENCODING 175
SWIDTH 700 0
DWIDTH 7 0
BBX 7 11 0 -2
BITMAP
00
00
00
38
00
00
00
00
00
00
00
ENDCHAR
STARTCHAR char176
ENCODING 176
SWIDTH 700 0
DWIDTH 7 0
BBX 7 11 0 -2
BITMAP
00
00
00
20
50
20
00
00
00
00
00
ENDCHAR
STARTCHAR char177
ENCODING 177
SWIDTH 700 0
DWIDTH 7 0
BBX 7 11 0 -2
BITMAP
00
00
00
10
38
10
00
38
00
00
00
ENDCHAR
STARTCHAR char178
ENCODING 178
SWIDTH 700 0
DWIDTH 7 0
BBX 7 11 0 -2
BITMAP
00
00
30
48
10
20
78
00
00
00
00
ENDCHAR
STARTCHAR char179
ENCODING 179
SWIDTH 700 0
DWIDTH 7 0
BBX 7 11 0 -2
BITMAP
00
00
70
10
60
10
70
00
00
00
00
ENDCHAR
STARTCHAR char180
ENCODING 180
SWIDTH 700 0
DWIDTH 7 0
BBX 7 11 0 -2
BITMAP
00
10
20
00
00
00
00
00
00
00
00
ENDCHAR
STARTCHAR char181
ENCODING 181
SWIDTH 700 0
DWIDTH 7 0
BBX 7 11 0 -2
BITMAP
00
00
00
00
48
48
48
58
68
40
40
ENDCHAR
STARTCHAR char182
ENCODING 182
SWIDTH 700 0
DWIDTH 7 0
BBX 7 11 0 -2
BITMAP
00
00
00
78
E8
E8
68
28
28
28
00
ENDCHAR
STARTCHAR char183
ENCODING 183
SWIDTH 700 0
DWIDTH 7 0
BBX 7 11 0 -2
BITMAP
00
00
00
00
00
00
18
18
00
00
00
ENDCHAR
STARTCHAR char184
ENCODING 184
SWIDTH 700 0
DWIDTH 7 0
BBX 7 11 0 -2
BITMAP
00
00
00
00
00
00
10
08
38
00
00
ENDCHAR
STARTCHAR char185
ENCODING 185
SWIDTH 700 0
DWIDTH 7 0
BBX 7 11 0 -2
BITMAP
00
00
00
20
60
20
20
20
00
00
00
ENDCHAR
STARTCHAR char186
ENCODING 186
SWIDTH 700 0
DWIDTH 7 0
BBX 7 11 0 -2
BITMAP
00
00
00
30
48
48
30
00
00
00
00
ENDCHAR
STARTCHAR char187
ENCODING 187
SWIDTH 700 0
DWIDTH 7 0
BBX 7 11 0 -2
BITMAP
00
00
00
00
00
48
24
48
00
00
00
ENDCHAR
STARTCHAR char179
ENCODING 188
SWIDTH 700 0
DWIDTH 7 0
BBX 7 11 0 -2
BITMAP
00
00
40
C0
40
48
18
28
3C
08
00
ENDCHAR
STARTCHAR char189
ENCODING 189
SWIDTH 700 0
DWIDTH 7 0
BBX 7 11 0 -2
BITMAP
00
00
40
C0
40
58
04
08
1C
00
00
ENDCHAR
STARTCHAR char179
ENCODING 190
SWIDTH 700 0
DWIDTH 7 0
BBX 7 11 0 -2
BITMAP
00
00
C0
20
40
28
D8
28
3C
08
00
ENDCHAR
STARTCHAR char63
ENCODING 191
SWIDTH 700 0
DWIDTH 7 0
BBX 7 11 0 -2
BITMAP
00
00
00
10
00
10
70
40
48
78
00
ENDCHAR
STARTCHAR char196
ENCODING 192
SWIDTH 700 0
DWIDTH 7 0
BBX 7 11 0 -2
BITMAP
00
20
10
38
48
48
48
78
48
00
00
ENDCHAR
STARTCHAR char196
ENCODING 193
SWIDTH 700 0
DWIDTH 7 0
BBX 7 11 0 -2
BITMAP
00
08
10
38
48
48
48
78
48
00
00
ENDCHAR
STARTCHAR char196
ENCODING 194
SWIDTH 700 0
DWIDTH 7 0
BBX 7 11 0 -2
BITMAP
00
30
48
30
48
48
48
78
48
00
00
ENDCHAR
STARTCHAR char196
ENCODING 195
SWIDTH 700 0
DWIDTH 7 0
BBX 7 11 0 -2
BITMAP
00
28
50
38
48
48
48
78
48
00
00
ENDCHAR
STARTCHAR char196
ENCODING 196
SWIDTH 700 0
DWIDTH 7 0
BBX 7 11 0 -2
BITMAP
00
48
00
38
48
48
48
78
48
00
00
ENDCHAR
STARTCHAR char197
ENCODING 197
SWIDTH 700 0
DWIDTH 7 0
BBX 7 11 0 -2
BITMAP
10
28
10
38
48
48
48
78
48
00
00
ENDCHAR
STARTCHAR char65
ENCODING 198
SWIDTH 700 0
DWIDTH 7 0
BBX 7 11 0 -2
BITMAP
00
00
00
7E
90
9C
90
F0
9E
00
00
ENDCHAR
STARTCHAR char67
ENCODING 199
SWIDTH 700 0
DWIDTH 7 0
BBX 7 11 0 -2
BITMAP
00
00
00
38
40
40
40
40
78
10
30
ENDCHAR
STARTCHAR char69
ENCODING 200
SWIDTH 700 0
DWIDTH 7 0
BBX 7 11 0 -2
BITMAP
00
20
10
78
40
70
40
40
78
00
00
ENDCHAR
STARTCHAR char69
ENCODING 201
SWIDTH 700 0
DWIDTH 7 0
BBX 7 11 0 -2
BITMAP
00
10
20
78
40
70
40
40
78
00
00
ENDCHAR
STARTCHAR char69
ENCODING 202
SWIDTH 700 0
DWIDTH 7 0
BBX 7 11 0 -2
BITMAP
00
30
48
38
40
40
70
40
78
00
00
ENDCHAR
STARTCHAR char69
ENCODING 203
SWIDTH 700 0
DWIDTH 7 0
BBX 7 11 0 -2
BITMAP
00
48
00
78
40
70
40
40
78
00
00
ENDCHAR
STARTCHAR char73
ENCODING 204
SWIDTH 700 0
DWIDTH 7 0
BBX 7 11 0 -2
BITMAP
00
20
10
38
10
10
10
10
38
00
00
ENDCHAR
STARTCHAR char73
ENCODING 205
SWIDTH 700 0
DWIDTH 7 0
BBX 7 11 0 -2
BITMAP
00
08
10
38
10
10
10
10
38
00
00
ENDCHAR
STARTCHAR char73
ENCODING 206
SWIDTH 700 0
DWIDTH 7 0
BBX 7 11 0 -2
BITMAP
00
10
28
00
38
10
10
10
38
00
00
ENDCHAR
STARTCHAR char73
ENCODING 207
SWIDTH 700 0
DWIDTH 7 0
BBX 7 11 0 -2
BITMAP
00
28
00
38
10
10
10
10
38
00
00
ENDCHAR
STARTCHAR char68
ENCODING 208
SWIDTH 700 0
DWIDTH 7 0
BBX 7 11 0 -2
BITMAP
00
00
00
78
24
74
24
24
78
00
00
ENDCHAR
STARTCHAR char110
ENCODING 209
SWIDTH 700 0
DWIDTH 7 0
BBX 7 11 0 -2
BITMAP
00
28
50
68
68
68
58
58
58
00
00
ENDCHAR
STARTCHAR char214
ENCODING 210
SWIDTH 700 0
DWIDTH 7 0
BBX 7 11 0 -2
BITMAP
00
20
10
78
48
48
48
48
78
00
00
ENDCHAR
STARTCHAR char214
ENCODING 211
SWIDTH 700 0
DWIDTH 7 0
BBX 7 11 0 -2
BITMAP
00
10
20
78
48
48
48
48
78
00
00
ENDCHAR
STARTCHAR char214
ENCODING 212
SWIDTH 700 0
DWIDTH 7 0
BBX 7 11 0 -2
BITMAP
00
30
48
30
48
48
48
48
78
00
00
ENDCHAR
STARTCHAR char214
ENCODING 213
SWIDTH 700 0
DWIDTH 7 0
BBX 7 11 0 -2
BITMAP
00
28
50
38
48
48
48
48
78
00
00
ENDCHAR
STARTCHAR char214
ENCODING 214
SWIDTH 700 0
DWIDTH 7 0
BBX 7 11 0 -2
BITMAP
00
48
00
78
48
48
48
48
78
00
00
ENDCHAR
STARTCHAR char215
ENCODING 215
SWIDTH 700 0
DWIDTH 7 0
BBX 7 11 0 -2
BITMAP
00
00
00
00
28
10
28
00
00
00
00
ENDCHAR
STARTCHAR char248
ENCODING 216
SWIDTH 700 0
DWIDTH 7 0
BBX 7 11 0 -2
BITMAP
00
00
08
78
58
58
68
68
78
40
00
ENDCHAR
STARTCHAR char85
ENCODING 217
SWIDTH 700 0
DWIDTH 7 0
BBX 7 11 0 -2
BITMAP
00
20
10
48
48
48
48
48
78
00
00
ENDCHAR
STARTCHAR char85
ENCODING 218
SWIDTH 700 0
DWIDTH 7 0
BBX 7 11 0 -2
BITMAP
00
10
20
48
48
48
48
48
78
00
00
ENDCHAR
STARTCHAR char85
ENCODING 219
SWIDTH 700 0
DWIDTH 7 0
BBX 7 11 0 -2
BITMAP
00
30
48
00
48
48
48
48
78
00
00
ENDCHAR
STARTCHAR char85
ENCODING 220
SWIDTH 700 0
DWIDTH 7 0
BBX 7 11 0 -2
BITMAP
00
48
00
48
48
48
48
48
78
00
00
ENDCHAR
STARTCHAR char89
ENCODING 221
SWIDTH 700 0
DWIDTH 7 0
BBX 7 11 0 -2
BITMAP
00
08
10
44
6C
38
10
10
10
00
00
ENDCHAR
STARTCHAR char112
ENCODING 222
SWIDTH 700 0
DWIDTH 7 0
BBX 7 11 0 -2
BITMAP
00
00
40
40
78
48
48
78
40
40
00
ENDCHAR
STARTCHAR char223
ENCODING 223
SWIDTH 700 0
DWIDTH 7 0
BBX 7 11 0 -2
BITMAP
00
00
70
50
50
48
48
48
58
40
00
ENDCHAR
STARTCHAR char228
ENCODING 224
SWIDTH 700 0
DWIDTH 7 0
BBX 7 11 0 -2
BITMAP
00
00
20
10
38
08
78
48
78
00
00
ENDCHAR
STARTCHAR char228
ENCODING 225
SWIDTH 700 0
DWIDTH 7 0
BBX 7 11 0 -2
BITMAP
00
00
08
10
38
08
78
48
78
00
00
ENDCHAR
STARTCHAR char228
ENCODING 226
SWIDTH 700 0
DWIDTH 7 0
BBX 7 11 0 -2
BITMAP
00
10
28
00
38
08
78
48
78
00
00
ENDCHAR
STARTCHAR char228
ENCODING 227
SWIDTH 700 0
DWIDTH 7 0
BBX 7 11 0 -2
BITMAP
00
28
50
00
38
08
78
48
78
00
00
ENDCHAR
STARTCHAR char228
ENCODING 228
SWIDTH 700 0
DWIDTH 7 0
BBX 7 11 0 -2
BITMAP
00
00
28
00
38
08
38
48
78
00
00
ENDCHAR
STARTCHAR char229
ENCODING 229
SWIDTH 700 0
DWIDTH 7 0
BBX 7 11 0 -2
BITMAP
00
10
28
10
38
08
78
48
78
00
00
ENDCHAR
STARTCHAR char97
ENCODING 230
SWIDTH 700 0
DWIDTH 7 0
BBX 7 11 0 -2
BITMAP
00
00
00
00
7E
12
FE
90
FE
00
00
ENDCHAR
STARTCHAR char99
ENCODING 231
SWIDTH 700 0
DWIDTH 7 0
BBX 7 11 0 -2
BITMAP
00
00
00
00
38
40
40
40
78
10
30
ENDCHAR
STARTCHAR char101
ENCODING 232
SWIDTH 700 0
DWIDTH 7 0
BBX 7 11 0 -2
BITMAP
00
00
20
10
78
48
78
40
78
00
00
ENDCHAR
STARTCHAR char101
ENCODING 233
SWIDTH 700 0
DWIDTH 7 0
BBX 7 11 0 -2
BITMAP
00
00
10
20
78
48
78
40
78
00
00
ENDCHAR
STARTCHAR char101
ENCODING 234
SWIDTH 700 0
DWIDTH 7 0
BBX 7 11 0 -2
BITMAP
00
30
48
00
78
48
78
40
78
00
00
ENDCHAR
STARTCHAR char101
ENCODING 235
SWIDTH 700 0
DWIDTH 7 0
BBX 7 11 0 -2
BITMAP
00
00
48
00
78
48
78
40
78
00
00
ENDCHAR
STARTCHAR char105
ENCODING 236
SWIDTH 700 0
DWIDTH 7 0
BBX 7 11 0 -2
BITMAP
00
20
10
00
30
10
10
10
38
00
00
ENDCHAR
STARTCHAR char105
ENCODING 237
SWIDTH 700 0
DWIDTH 7 0
BBX 7 11 0 -2
BITMAP
00
08
10
00
30
10
10
10
38
00
00
ENDCHAR
STARTCHAR char105
ENCODING 238
SWIDTH 700 0
DWIDTH 7 0
BBX 7 11 0 -2
BITMAP
00
10
28
00
30
10
10
10
38
00
00
ENDCHAR
STARTCHAR char105
ENCODING 239
SWIDTH 700 0
DWIDTH 7 0
BBX 7 11 0 -2
BITMAP
00
00
28
00
30
10
10
10
38
00
00
ENDCHAR
STARTCHAR char240
ENCODING 240
SWIDTH 700 0
DWIDTH 7 0
BBX 7 11 0 -2
BITMAP
00
00
10
0C
18
08
78
48
78
00
00
ENDCHAR
STARTCHAR char110
ENCODING 241
SWIDTH 700 0
DWIDTH 7 0
BBX 7 11 0 -2
BITMAP
00
28
50
00
78
48
48
48
48
00
00
ENDCHAR
STARTCHAR char246
ENCODING 242
SWIDTH 700 0
DWIDTH 7 0
BBX 7 11 0 -2
BITMAP
00
00
20
10
78
48
48
48
78
00
00
ENDCHAR
STARTCHAR char214
ENCODING 243
SWIDTH 700 0
DWIDTH 7 0
BBX 7 11 0 -2
BITMAP
00
00
10
20
78
48
48
48
78
00
00
ENDCHAR
STARTCHAR char214
ENCODING 244
SWIDTH 700 0
DWIDTH 7 0
BBX 7 11 0 -2
BITMAP
00
30
48
00
78
48
48
48
78
00
00
ENDCHAR
STARTCHAR char214
ENCODING 245
SWIDTH 700 0
DWIDTH 7 0
BBX 7 11 0 -2
BITMAP
00
28
50
00
78
48
48
48
78
00
00
ENDCHAR
STARTCHAR char246
ENCODING 246
SWIDTH 700 0
DWIDTH 7 0
BBX 7 11 0 -2
BITMAP
00
00
48
00
78
48
48
48
78
00
00
ENDCHAR
STARTCHAR char247
ENCODING 247
SWIDTH 700 0
DWIDTH 7 0
BBX 7 11 0 -2
BITMAP
00
00
00
10
00
7C
00
10
00
00
00
ENDCHAR
STARTCHAR char248
ENCODING 248
SWIDTH 700 0
DWIDTH 7 0
BBX 7 11 0 -2
BITMAP
00
00
00
08
78
58
48
68
78
40
00
ENDCHAR
STARTCHAR char117
ENCODING 249
SWIDTH 700 0
DWIDTH 7 0
BBX 7 11 0 -2
BITMAP
00
00
20
10
48
48
48
48
78
00
00
ENDCHAR
STARTCHAR char117
ENCODING 250
SWIDTH 700 0
DWIDTH 7 0
BBX 7 11 0 -2
BITMAP
00
00
10
20
48
48
48
48
78
00
00
ENDCHAR
STARTCHAR char117
ENCODING 251
SWIDTH 700 0
DWIDTH 7 0
BBX 7 11 0 -2
BITMAP
00
30
48
00
48
48
48
48
78
00
00
ENDCHAR
STARTCHAR char117
ENCODING 252
SWIDTH 700 0
DWIDTH 7 0
BBX 7 11 0 -2
BITMAP
00
00
48
00
48
48
48
48
78
00
00
ENDCHAR
STARTCHAR char121
ENCODING 253
SWIDTH 700 0
DWIDTH 7 0
BBX 7 11 0 -2
BITMAP
00
00
10
20
48
48
48
78
08
78
00
ENDCHAR
STARTCHAR char112
ENCODING 254
SWIDTH 700 0
DWIDTH 7 0
BBX 7 11 0 -2
BITMAP
00
00
00
40
40
78
48
78
40
40
00
ENDCHAR
STARTCHAR char121
ENCODING 255
SWIDTH 700 0
DWIDTH 7 0
BBX 7 11 0 -2
BITMAP
00
00
48
00
48
48
48
78
08
78
00
ENDCHAR
ENDFONT
